<?xml version="1.0" encoding="UTF-8"?>
<!-- Generator: Adobe Illustrator 25.2.1, SVG Export Plug-In . SVG Version: 6.00 Build 0)  -->
<svg xmlns="http://www.w3.org/2000/svg" xmlns:xlink="http://www.w3.org/1999/xlink" version="1.1" id="Capa_1" x="0px" y="0px" viewBox="0 0 512 512" style="enable-background:new 0 0 512 512;" xml:space="preserve" width="512" height="512">
<g>
	<g>
		<g>
			<path style="fill:#FFFFFF;" d="M90.07,512c-5.105,0-9.805-2.772-12.275-7.239c-2.469-4.468-2.317-9.923,0.396-14.246     l31.677-50.449c-1.836-3.656-3.51-7.479-5.004-11.429c-37.087-38.962-57.47-89.879-57.47-143.733     c0-76.186,40.721-145.164,106.861-182.096c0.064-13.305,1.536-30.068,8.182-45.845c17.072-40.549,60.298-55.987,95.056-56.915     C258.72,0.016,259.948,0,261.174,0c1.402,0,2.799,0.022,4.189,0.064c5.007,0.153,10.157,0.76,15.745,1.856     c29.512,5.788,59.887,27.239,61.22,62.116c0.345,9.02-0.769,17.789-1.906,25.179c-0.235,1.533-0.495,3.055-0.774,4.561     c34.555,15.193,64.907,39.948,86.8,70.894c2.561,0.692,5.032,1.662,7.337,2.89c8.76,4.667,15.198,12.98,17.666,22.806     c1.053,4.192,0.114,8.635-2.543,12.043c-0.276,0.353-0.566,0.69-0.87,1.011c10.876,25.662,16.567,53.501,16.567,81.486     c0,55.499-21.368,107.333-60.311,146.64v7.722l33.534,51c2.833,4.309,3.073,9.825,0.626,14.364     c-2.448,4.538-7.189,7.368-12.346,7.368H90.07z"/>
		</g>
	</g>
	<g>
		<g>
			<g>
				
					<ellipse transform="matrix(0.7071 -0.7071 0.7071 0.7071 -126.0555 265.4857)" style="fill:#FFD484;" cx="257.442" cy="284.905" rx="194.58" ry="194.58"/>
			</g>
		</g>
		<g>
			<g>
				<g>
					<path style="fill:#040308;" d="M259.308,14.071c2.373-0.063,4.733-0.058,7.073,0.013c4.515,0.138,9.041,0.731,13.472,1.6       c24.469,4.799,48.875,22.057,49.902,48.888c0.289,7.534-0.612,15.075-1.755,22.509c-2.078,13.518-6.348,26.642-8.119,40.203       c-0.406,3.112-0.658,6.395,0.575,9.281c2.467,5.772,9.556,7.635,15.678,9.021c10.728,2.428,21.929,5.964,29.078,14.324       c5.456,6.38,7.87,14.904,8.373,23.284c0.689,11.49-2.005,23.163-7.661,33.189c-3.337,5.915-7.97,11.474-14.296,13.946       c-7.418,2.899-15.728,1.102-23.547-0.407c-57.706-11.133-117.296-4.414-175.285,5.133       c-10.375-10.444-18.164-23.639-21.964-37.861c-3.546-13.269-2.808-26.092,5.787-37.338       c6.185-8.093,14.884-13.937,24.001-18.482c8.245-4.11,10.627-8.433,9.939-17.693c-1.507-20.287-1.784-42.2,6.246-61.274       C190.512,29.854,225.734,14.967,259.308,14.071z"/>
				</g>
			</g>
			<g>
				<g>
					<g>
						<polygon style="fill:#FFB4DC;" points="282.201,151.212 282.201,164.196 279.354,167.336 282.201,170.071 282.201,184.034         222.238,183.73 215.061,122.247       "/>
					</g>
				</g>
				<g>
					<g>
						<path style="fill:#040308;" d="M282.201,158.389v16.991c-8.047,1.343-14.761,1.045-21.04-0.509        c-19.398-4.801-35.721-17.112-39.368-37.755C239.397,148.991,260.413,156.355,282.201,158.389z"/>
					</g>
				</g>
			</g>
			<g>
				<g>
					<g>
						<path style="fill:#FFB4DC;" d="M297.864,157.617c-27.702,16.902-70.016,8.883-80.442-26.37        c-4.512-15.289-7.13-27.352-8.65-36.095c-0.888-5.096-1.379-9.07-1.683-11.899c-0.818-3.834-1.286-7.785-1.286-11.829        c0-30.601,24.944-55.404,55.709-55.404c12.647,0,24.289,4.184,33.64,11.244c8.037,6.068,14.371,14.277,18.122,23.631        c4.299,10.721,3.909,21.954,4.019,33.261c0.082,8.461,0.112,16.88-0.571,25.331c-1.201,14.844-3.438,33.765-14.646,44.806        C300.798,155.553,299.397,156.682,297.864,157.617z"/>
					</g>
				</g>
				<g>
					<g>
						<g>
							<path style="fill:#040308;" d="M264.306,101.516c0,2.719-1.911,4.924-4.268,4.924c-2.357,0-4.268-2.205-4.268-4.924         c0-2.72,1.911-4.924,4.268-4.924C262.395,96.592,264.306,98.797,264.306,101.516z"/>
						</g>
					</g>
					<g>
						<g>
							<path style="fill:#040308;" d="M307.579,101.516c0,2.719-1.911,4.924-4.268,4.924c-2.357,0-4.268-2.205-4.268-4.924         c0-2.72,1.911-4.924,4.268-4.924C305.668,96.592,307.579,98.797,307.579,101.516z"/>
						</g>
					</g>
					<g>
						<g>
							<g>
								<path style="fill:#040308;" d="M291.877,128.648c-0.043,0-0.086-0.005-0.129-0.015c-3.066-0.698-5.985-1.873-8.678-3.49          c-0.278-0.166-0.367-0.524-0.201-0.802c0.166-0.278,0.529-0.368,0.8-0.2c2.371,1.423,4.926,2.49,7.603,3.174          c-0.296-11.695-0.671-23.725-1.113-35.771c-0.011-0.323,0.242-0.593,0.563-0.605c0.33-0.045,0.593,0.242,0.606,0.562          c0.451,12.312,0.833,24.608,1.133,36.547c0.004,0.181-0.076,0.353-0.214,0.467          C292.143,128.602,292.011,128.648,291.877,128.648z"/>
							</g>
						</g>
						<g>
							<g>
								<path style="fill:#040308;" d="M281.726,137.121c-0.166,0-0.337-0.011-0.511-0.033c-2.902-0.376-3.802-3.521-4.339-5.399          c-0.091-0.311,0.091-0.634,0.399-0.723c0.311-0.085,0.634,0.091,0.723,0.401c0.621,2.167,1.392,4.305,3.368,4.562          c1.519,0.194,2.79-0.794,4.067-3.105c0.155-0.285,0.522-0.381,0.794-0.229c0.283,0.156,0.384,0.511,0.229,0.794          C285.929,134.341,284.391,137.121,281.726,137.121z"/>
							</g>
						</g>
					</g>
					<g>
						<g>
							<path style="fill:#040308;" d="M250.703,88.091c0.204-2.294,1.902-4.338,4.07-5.313c2.174-0.962,4.829-0.862,6.673,0.518         c0.272,0.203,0.327,0.589,0.124,0.86c-0.115,0.154-0.289,0.238-0.467,0.246l-0.032,0.001         c-3.914,0.142-6.574,1.33-9.294,4.148l-0.02,0.021c-0.236,0.244-0.625,0.251-0.869,0.016         C250.751,88.454,250.689,88.269,250.703,88.091z"/>
						</g>
					</g>
					<g>
						<g>
							<path style="fill:#040308;" d="M299.929,83.975c1.64-1.617,4.257-2.076,6.541-1.417c2.28,0.673,4.239,2.468,4.752,4.713         c0.076,0.331-0.132,0.661-0.462,0.736c-0.187,0.043-0.374-0.005-0.515-0.114l-0.025-0.02         c-3.076-2.425-5.873-3.241-9.77-2.852l-0.029,0.003c-0.338,0.034-0.639-0.213-0.673-0.55         C299.73,84.283,299.803,84.101,299.929,83.975z"/>
						</g>
					</g>
				</g>
				<g>
					<g>
						<g>
							<g>
								<path style="fill:#FFB4DC;" d="M198.78,91.869c-4.201,0.657-7.844,3.678-9.722,7.493c-1.878,3.815-2.1,8.319-1.107,12.454          c2.248,9.359,11.022,16.755,20.627,17.387c2.423,0.16,4.962-0.102,7.039-1.359c2.783-1.685,4.32-4.962,4.592-8.205          c0.272-3.243-0.562-6.477-1.621-9.553C215.58,101.341,210.186,90.085,198.78,91.869z"/>
							</g>
						</g>
					</g>
					<g>
						<g>
							<path style="fill:#040308;" d="M208.484,115.203c-0.188,0-0.373-0.092-0.485-0.26c-1.323-1.976-2.688-4.021-4.358-5.741         c-1.847-1.904-3.819-3.142-5.86-3.682c-0.313-0.083-0.498-0.402-0.416-0.714c0.082-0.314,0.401-0.499,0.714-0.416         c2.25,0.594,4.404,1.94,6.401,3.999c1.743,1.797,3.139,3.886,4.49,5.905c0.179,0.269,0.108,0.631-0.16,0.81         C208.708,115.17,208.596,115.203,208.484,115.203z"/>
						</g>
					</g>
				</g>
				<g>
					<g>
						<path style="fill:#040308;" d="M295.791,26.161c0.444,10.403-4.893,22.12-13.146,28.478        c-9.935,7.668-24.546,8.579-35.534,2.548c-0.818,13.933-4.933,28.45-15.289,37.801c-5.213,4.722-11.642,7.434-18.609,8.486        c-1.59-2.712-6.941-10.47-8.297-13.299c-0.888-5.096,1.05-3.886,0.746-6.715c-0.818-3.834-1.492-8.341-1.492-12.385        c0-30.601,26.535-55.807,57.3-55.807C274.118,15.268,286.44,19.101,295.791,26.161z"/>
					</g>
				</g>
			</g>
			<g>
				<g>
					<path style="fill:#B8B9FD;" d="M219.242,169.112c0,0,13.33,4.576,34.221,4.576s29.446-4.178,29.446-4.178l2.387,21.487       c0,0,64.064,22.283,86.746,66.452C394.723,301.618,387.56,438.5,387.56,438.5l-246.309,18.702c0,0-31.833-24.273-30.242-88.735       c1.592-64.462,30.786-125.389,48.943-143.249c24.273-23.875,55.31-33.425,55.31-33.425L219.242,169.112z"/>
				</g>
			</g>
		</g>
		<g>
			<g>
				<g>
					<polyline style="fill:#040308;" points="126.199,444.388 120.667,258.16 391.711,258.16 391.711,443.466 126.602,444.042             "/>
				</g>
			</g>
			<g>
				<g>
					<polygon style="fill:#FFB4DC;" points="379.336,435.168 137.621,435.168 132.204,268.762 382.044,268.762      "/>
				</g>
			</g>
			<g>
				<g>
					<g>
						<g>
							<g>
								<g>
									<ellipse style="fill:#FEF1E4;" cx="260.939" cy="346.775" rx="51.574" ry="51.881"/>
								</g>
							</g>
							<g>
								<g>
									<rect x="246.873" y="383.071" style="fill:#FEF1E4;" width="29.354" height="31.58"/>
								</g>
							</g>
						</g>
						<g>
							<g>
								<path style="fill:#FFD484;" d="M266.157,412.152c-1.566-16.039,3.264-32.324,13.258-44.683          c2.246-2.779,3.983-5.657,5.159-8.555c1.066-2.621,2.678-6.583,1.702-10.033c-0.552-1.959-1.987-3.502-3.657-3.927          c-1.389-0.358-3.027-0.024-4.999,1.008c-2.444,1.284-4.596,3.137-6.322,5.355c0.319,3.938,0.093,7.894-0.675,11.778          c-0.306,1.469-1.543,1.957-2.557,1.804c-1.031-0.147-2.091-0.964-1.974-2.412c0.33-4.145,1.916-8.14,4.382-11.409          c-0.028-0.315-0.058-0.63-0.093-0.947c-0.567-5.124-2.404-7.985-5.612-8.749c-1.51-0.36-3.178-0.123-4.693,0.669          c-2.865,1.495-4.861,4.393-6.091,8.842c2.035,3.247,3.448,6.939,4.099,10.714c0.14,0.813,0.203,1.575,0.19,2.265          c-0.024,1.074-0.714,1.927-1.758,2.173c-1.053,0.246-2.089-0.233-2.585-1.187c-1.853-3.556-2.168-8.524-0.863-13.636          c0.017-0.067,0.035-0.134,0.052-0.198c-0.039-0.06-0.076-0.119-0.114-0.177c-1.806-2.755-4.751-5.743-8.518-4.248          c-1.689,0.662-2.798,2.058-3.433,3.111c-3.868,6.423-1.016,14.576,1.899,20.961c2.246,4.919,4.725,9.819,7.366,14.566          l0.293,0.526c3.884,6.965,8.283,14.861,6.315,22.76l-0.777-0.194c1.892-7.59-2.427-15.34-6.237-22.177l-0.293-0.526          c-2.652-4.764-5.139-9.683-7.396-14.622c-2.997-6.563-5.916-14.963-1.855-21.707c1.001-1.661,2.324-2.852,3.825-3.443          c3.228-1.266,6.483,0.209,9.213,4.158c1.307-4.3,3.374-7.141,6.298-8.669c1.683-0.88,3.543-1.143,5.249-0.74          c3.579,0.852,5.614,3.942,6.22,9.444c0.006,0.045,0.011,0.091,0.015,0.134c1.7-2.022,3.754-3.715,6.058-4.924          c2.151-1.133,3.974-1.48,5.569-1.077c1.94,0.494,3.601,2.257,4.231,4.488c1.049,3.711-0.626,7.828-1.733,10.55          c-1.206,2.969-2.982,5.916-5.28,8.757c-9.86,12.194-14.628,28.27-13.081,44.1L266.157,412.152z M253.71,351.978          c-1.098,4.723-0.766,9.256,0.932,12.509c0.401,0.77,1.152,0.9,1.692,0.777c0.539-0.125,1.122-0.561,1.139-1.409          c0.015-0.639-0.045-1.348-0.177-2.112C256.707,358.324,255.475,354.973,253.71,351.978z M270.565,352.319          c-2.06,2.997-3.381,6.555-3.674,10.233c-0.076,0.936,0.593,1.456,1.29,1.556c0.68,0.095,1.456-0.207,1.644-1.113          C270.528,359.448,270.772,355.875,270.565,352.319z"/>
							</g>
						</g>
						<g>
							<g>
								<g>
									<path style="fill:#B8B9FD;" d="M277.582,405.768v2.59l-0.511,0.414l0.511,0.418v2.463l-0.594,0.405l0.594,0.404v2.014           c0,0.337-0.016,0.674-0.048,0.996c0,0-0.42,0.279-0.439,0.421c-0.018,0.13,0.328,0.398,0.328,0.398           c-0.846,5.349-5.461,9.429-11.018,9.429h-9.709c-5.557,0-10.172-4.08-11.018-9.429c0,0,0.364-0.312,0.346-0.467           c-0.014-0.118-0.457-0.352-0.457-0.352c-0.032-0.321-0.048-0.659-0.048-0.996v-2.008l0.36-0.41l-0.36-0.411v-2.465           l0.424-0.409l-0.424-0.418v-2.586H277.582z"/>
								</g>
							</g>
							<g>
								<g>
									<g>
										<rect x="245.518" y="408.354" style="fill:#040308;" width="32.065" height="0.835"/>
									</g>
								</g>
							</g>
							<g>
								<g>
									<g>
										<rect x="245.518" y="411.647" style="fill:#040308;" width="32.065" height="0.819"/>
									</g>
								</g>
							</g>
							<g>
								<g>
									<g>
										<path style="fill:#040308;" d="M277.534,415.47c-0.016,0.273-0.048,0.546-0.112,0.819h-31.745            c-0.064-0.273-0.096-0.546-0.112-0.819H277.534z"/>
									</g>
								</g>
							</g>
						</g>
						<g>
							<g>
								<g>
									<path style="fill:#FFFFFF;" d="M290.762,317.257c-0.025,1.86,0.643,3.661,1.477,5.321c0.841,1.675,1.923,3.321,3.544,4.248           c1.621,0.927,3.891,0.922,5.17-0.443c0.987-1.053,1.18-2.63,1.088-4.074c-0.171-2.685-1.171-5.31-2.826-7.422           C296.074,310.878,290.838,311.556,290.762,317.257z"/>
								</g>
							</g>
							<g>
								<g>
									<path style="fill:#FFFFFF;" d="M299.166,335.441c-0.377,4.189,0.078,8.452,1.332,12.465           c0.603,1.933,1.707,4.077,3.695,4.401c1.403,0.229,2.821-0.602,3.645-1.767s1.151-2.609,1.336-4.027           c0.453-3.466,0.157-7.029-0.861-10.372c-0.663-2.176-2.219-5.546-4.757-6.032           C300.604,329.546,299.368,333.192,299.166,335.441z"/>
								</g>
							</g>
						</g>
					</g>
					<g>
						<g>
							<g>
								<path style="fill:#FFFFFF;" d="M208.758,405.391c-0.416,0-0.822-0.216-1.044-0.604c-0.33-0.574-0.132-1.307,0.444-1.64          L221,395.764c0.576-0.326,1.31-0.132,1.64,0.444c0.33,0.574,0.132,1.307-0.444,1.64l-12.842,7.383          C209.165,405.339,208.961,405.391,208.758,405.391z"/>
							</g>
						</g>
						<g>
							<g>
								<path style="fill:#FFFFFF;" d="M316.691,328.802c-0.416,0-0.822-0.216-1.044-0.604c-0.33-0.574-0.132-1.307,0.444-1.64          l12.842-7.383c0.574-0.33,1.31-0.132,1.64,0.444c0.33,0.574,0.132,1.307-0.444,1.64l-12.842,7.383          C317.099,328.75,316.894,328.802,316.691,328.802z"/>
							</g>
						</g>
						<g>
							<g>
								<path style="fill:#FFFFFF;" d="M298.868,305.371c-0.276,0-0.554-0.095-0.781-0.289c-0.505-0.432-0.563-1.191-0.132-1.694          l9.655-11.271c0.431-0.507,1.189-0.563,1.694-0.132c0.505,0.431,0.563,1.191,0.132,1.694l-9.655,11.271          C299.543,305.229,299.206,305.371,298.868,305.371z"/>
							</g>
						</g>
						<g>
							<g>
								<path style="fill:#FFFFFF;" d="M263.877,292.102c-0.004,0-0.007,0-0.011,0c-0.665-0.006-1.197-0.55-1.191-1.213          l0.136-14.878c0.006-0.66,0.544-1.191,1.202-1.191c0.004,0,0.006,0,0.011,0c0.665,0.006,1.195,0.55,1.191,1.213          l-0.136,14.878C265.072,291.571,264.535,292.102,263.877,292.102z"/>
							</g>
						</g>
						<g>
							<g>
								<path style="fill:#FFFFFF;" d="M230.102,300.879c-0.347,0-0.695-0.151-0.932-0.444l-9.366-11.515          c-0.419-0.513-0.341-1.271,0.175-1.689c0.514-0.416,1.271-0.343,1.689,0.175l9.366,11.515          c0.419,0.513,0.341,1.271-0.175,1.689C230.637,300.79,230.37,300.879,230.102,300.879z"/>
							</g>
						</g>
					</g>
				</g>
				<g>
					<g>
						<g>
							<path style="fill:#FFFFFF;" d="M190.954,373.418c-0.634,0-1.165-0.496-1.2-1.135c-0.037-0.662,0.47-1.23,1.133-1.266         l14.768-0.811c0.706,0.004,1.23,0.473,1.266,1.133c0.037,0.662-0.47,1.23-1.133,1.267l-14.768,0.811         C190.997,373.416,190.975,373.418,190.954,373.418z"/>
						</g>
					</g>
					<g>
						<g>
							<path style="fill:#FFFFFF;" d="M321.559,353.588c-0.634,0-1.165-0.496-1.2-1.135c-0.037-0.662,0.47-1.23,1.133-1.266         l14.768-0.813c0.688-0.004,1.23,0.473,1.266,1.133c0.037,0.662-0.47,1.23-1.133,1.266l-14.768,0.813         C321.602,353.586,321.58,353.588,321.559,353.588z"/>
						</g>
					</g>
				</g>
				<g>
					<g>
						<g>
							<path style="fill:#FFFFFF;" d="M201.918,345.853c-0.158,0-0.315-0.03-0.468-0.095l-13.634-5.769         c-0.611-0.259-0.898-0.964-0.639-1.575c0.261-0.611,0.967-0.895,1.575-0.639l13.634,5.769         c0.611,0.259,0.898,0.964,0.639,1.575C202.831,345.577,202.386,345.853,201.918,345.853z"/>
						</g>
					</g>
					<g>
						<g>
							<path style="fill:#FFFFFF;" d="M327.986,385.496c-0.158,0-0.315-0.03-0.468-0.095l-13.634-5.769         c-0.611-0.259-0.898-0.964-0.639-1.575c0.259-0.611,0.967-0.895,1.575-0.639l13.634,5.769         c0.611,0.259,0.898,0.964,0.639,1.575C328.899,385.22,328.454,385.496,327.986,385.496z"/>
						</g>
					</g>
				</g>
				<g>
					<g>
						<g>
							<path style="fill:#FFFFFF;" d="M209.295,320.558c-0.311,0-0.621-0.121-0.857-0.36l-10.397-10.585         c-0.466-0.473-0.457-1.234,0.015-1.698c0.473-0.466,1.234-0.457,1.698,0.015l10.397,10.585         c0.466,0.473,0.457,1.234-0.015,1.698C209.903,320.444,209.599,320.558,209.295,320.558z"/>
						</g>
					</g>
					<g>
						<g>
							<path style="fill:#FFFFFF;" d="M310.646,405.762c-0.311,0-0.621-0.121-0.857-0.36l-10.395-10.583         c-0.466-0.473-0.457-1.234,0.015-1.698c0.47-0.466,1.232-0.46,1.698,0.015l10.395,10.583         c0.466,0.473,0.457,1.234-0.015,1.698C311.254,405.647,310.95,405.762,310.646,405.762z"/>
						</g>
					</g>
				</g>
			</g>
			<g>
				<g>
					<g>
						<g>
							<polygon style="fill:#B8B9FD;" points="91.511,497.974 427.551,497.974 391.711,443.466 125.738,443.466        "/>
						</g>
					</g>
					<g style="opacity:0.68;">
						<g>
							<polygon style="fill:#040308;" points="91.511,497.974 427.551,497.974 391.711,443.466 125.738,443.466        "/>
						</g>
					</g>
				</g>
				<g>
					<g>
						<path style="fill:#FFFFFF;" d="M389.407,456.941H125.276c-0.132,0-0.252-0.078-0.306-0.196        c-0.056-0.119-0.037-0.261,0.047-0.36l5.072-5.992c0.065-0.078,0.16-0.121,0.259-0.121h253.758        c0.097,0,0.19,0.041,0.255,0.114l5.301,5.992c0.086,0.099,0.108,0.242,0.054,0.362        C389.662,456.863,389.541,456.941,389.407,456.941z M126.005,456.263h262.651l-4.703-5.314H130.506L126.005,456.263z"/>
					</g>
				</g>
				<g>
					<g>
						<path style="fill:#FFFFFF;" d="M398.855,470.779H117.094c-0.134,0-0.255-0.073-0.319-0.19        c-0.063-0.117-0.058-0.259,0.015-0.369l4.166-6.423c0.067-0.104,0.181-0.166,0.304-0.166h271.916        c0.104,0,0.203,0.045,0.272,0.123l5.679,6.423c0.095,0.106,0.116,0.259,0.058,0.388        C399.127,470.695,398.997,470.779,398.855,470.779z M117.761,470.054H398.05l-5.038-5.698H121.457L117.761,470.054z"/>
					</g>
				</g>
				<g>
					<g>
						<path style="fill:#FFFFFF;" d="M332.823,487.2H173.792c-0.093,0-0.179-0.043-0.235-0.119        c-0.054-0.076-0.069-0.173-0.041-0.259l2.352-7.26c0.039-0.121,0.151-0.201,0.276-0.201h153.473        c0.114,0,0.218,0.067,0.265,0.173l3.206,7.26c0.039,0.088,0.03,0.192-0.022,0.274C333.013,487.151,332.92,487.2,332.823,487.2        z M174.192,486.622h158.187l-2.952-6.682H176.356L174.192,486.622z"/>
					</g>
				</g>
			</g>
		</g>
		<g>
			<g>
				<path style="fill:#FEF1E4;" d="M439.289,193.782H317.377c2.152-4.197,5.34-7.863,9.245-10.52      c5.366-3.64,12.061-5.366,18.543-4.729c2.046-9.697,8.049-18.517,16.312-23.989c8.289-5.473,19.499-6.774,28.293-2.205      c10.281,5.34,15.541,17.268,16.949,28.771c6.402-4.543,14.983-4.862,21.917-1.169      C433.922,182.757,437.828,187.964,439.289,193.782z"/>
			</g>
		</g>
		<g>
			<g>
				<g>
					<g>
						<path style="fill:#FFFFFF;" d="M419.194,221.637h-97.489c-5.165,0-9.351,4.186-9.351,9.351v20.294        c0,5.164,4.186,9.351,9.351,9.351h27.198l-2.329,20.294l14.971-20.294h57.649c5.165,0,9.351-4.187,9.351-9.351v-20.294        C428.545,225.823,424.359,221.637,419.194,221.637z"/>
					</g>
				</g>
				<g>
					<g>
						<g>
							<path style="fill:#FF470C;" d="M342.406,234.39c0,0-7.942-9.614-12.819-2.926c-4.877,6.688,13.098,22.294,13.098,22.294         S342.197,234.599,342.406,234.39z"/>
						</g>
					</g>
					<g>
						<g>
							<path style="fill:#FF470C;" d="M342.124,234.39c0,0,7.942-9.614,12.819-2.926c4.877,6.688-12.305,22.294-12.305,22.294         S342.333,234.599,342.124,234.39z"/>
						</g>
					</g>
				</g>
				<g>
					<g>
						<g>
							<path style="fill:#040308;" d="M380.578,246.322l1.879,0.084c0.561,0,1.234,0.449,1.234,1.234v1.711         c0,0.617-0.505,1.234-1.234,1.234h-8.078c-0.729,0-1.234-0.617-1.234-1.234v-1.711c0-0.729,0.589-1.234,1.234-1.234h1.795         l0.084-10.518h-1.599c-0.757,0-1.374-0.617-1.374-1.374v-0.084c0-0.954,0.056-1.627,0.056-1.627l4.376-2.216         c0.196-0.112,0.421-0.168,0.645-0.168h0.842c0.365,0,0.701,0.14,0.954,0.421c0.281,0.253,0.421,0.589,0.421,0.954V246.322z"/>
						</g>
					</g>
					<g>
						<g>
							<path style="fill:#040308;" d="M387.929,250.586c-0.589,0-1.066-0.477-1.066-1.094v-17.558c0-0.645,0.477-1.122,1.066-1.122         h1.963c0.589,0,1.066,0.477,1.066,1.122v6.788h0.028l5.526-7.321c0.28-0.393,0.701-0.589,1.178-0.589h2.244         c0.589,0,1.038,0.449,1.038,1.038c0,0.224-0.084,0.449-0.224,0.673l-6.198,8.078l6.227,8.33         c0.14,0.196,0.224,0.421,0.224,0.645c0,0.589-0.449,1.038-1.038,1.038l-2.3-0.028c-0.477,0-0.87-0.196-1.15-0.589         l-5.413-7.208h-0.14v6.704c0,0.617-0.477,1.094-1.066,1.094H387.929z"/>
						</g>
					</g>
				</g>
			</g>
			<g>
				<g>
					<g>
						<circle style="fill:#0060FF;" cx="125.981" cy="217.608" r="33.574"/>
					</g>
				</g>
				<g>
					<g>
						<g>
							<path style="fill:#FEF1E4;" d="M120.509,208.506c0,0-1.948-13.118,1.039-13.378c2.987-0.26,9.611,12.988,9.611,12.988         l6.494,0.779l-1.169,26.496c0,0-30.133,1.039-31.042-2.078c-0.909-3.117-0.26-5.845-0.26-5.845s-2.208-3.767-1.688-5.975         c0.519-2.208,1.558-4.156,1.558-4.156s-1.429-4.027-1.039-6.494s4.676-2.727,7.014-2.598         C113.366,208.376,120.509,208.506,120.509,208.506z"/>
						</g>
					</g>
					<g>
						<g>
							<path style="fill:#FEF1E4;" d="M149.214,235.712h-0.002l-18.102-0.261c-0.106,0-0.19-0.086-0.188-0.192         c0-0.106,0.086-0.188,0.19-0.188h0.002l17.912,0.257l0.514-25.604l-18.264-1.159c-0.104-0.006-0.183-0.097-0.177-0.202         c0.006-0.105,0.112-0.187,0.203-0.178l18.445,1.169c0.101,0.005,0.179,0.092,0.177,0.194l-0.52,25.977         C149.401,235.63,149.317,235.712,149.214,235.712z"/>
						</g>
					</g>
				</g>
			</g>
			<g>
				<g>
					<g>
						
							<ellipse transform="matrix(0.7071 -0.7071 0.7071 0.7071 -209.5245 186.3327)" style="fill:#FF470C;" cx="120.161" cy="346.085" rx="38.2" ry="38.2"/>
					</g>
				</g>
				<g>
					<g>
						<path style="fill:#FEF1E4;" d="M120.162,374.126c-15.463,0-28.042-12.578-28.042-28.042c0-15.461,12.579-28.039,28.042-28.039        c15.461,0,28.039,12.579,28.039,28.039C148.202,361.547,135.623,374.126,120.162,374.126z M120.162,319.214        c-14.818,0-26.872,12.054-26.872,26.87c0,14.818,12.054,26.872,26.872,26.872c14.816,0,26.87-12.054,26.87-26.872        C147.032,331.268,134.978,319.214,120.162,319.214z"/>
					</g>
				</g>
				<g>
					<g>
						<rect x="119.578" y="318.629" style="fill:#FEF1E4;" width="1.169" height="54.912"/>
					</g>
				</g>
				<g>
					<g>
						<rect x="92.705" y="345.499" style="fill:#FEF1E4;" width="54.912" height="1.169"/>
					</g>
				</g>
				<g>
					<g>
						<path style="fill:#FEF1E4;" d="M114.462,373.243c-4.117-4.414-6.807-10.561-8-18.274c-0.822-5.318-0.874-10.717-0.155-16.041        c0.632-4.703,1.78-8.602,3.515-11.923c2.106-4.032,5.04-6.8,8.544-8.672l0.584,0.676c-3.299,1.763-6.097,4.714-8.093,8.535        c-1.67,3.2-2.779,6.973-3.394,11.539c-0.703,5.215-0.652,10.499,0.155,15.709c1.156,7.474,3.746,13.416,7.698,17.653        L114.462,373.243z"/>
					</g>
				</g>
				<g>
					<g>
						<path style="fill:#FEF1E4;" d="M126.717,373.211l-0.947-0.413c4.99-5.881,6.125-14.056,6.576-21.278        c0.468-7.5,0.49-17.159-3.556-25.345c-1.394-2.826-3.249-5.267-5.19-6.816l0.89-0.69c2.078,1.657,3.877,4.009,5.349,6.988        c4.166,8.434,4.151,18.292,3.672,25.936C133.049,359.005,131.927,367.069,126.717,373.211z"/>
					</g>
				</g>
				<g>
					<g>
						<path style="fill:#FEF1E4;" d="M93.152,344.82l-0.88-0.553c0.682-1.346,1.68-2.282,2.718-3.078        c10.665-8.181,25.347-11.092,38.325-7.597c6.214,1.674,10.995,4.481,14.21,8.343l-0.704,0.767        c-3.057-3.672-7.831-6.372-13.808-7.979c-12.635-3.409-26.928-0.572-37.31,7.394C94.768,342.835,93.722,343.693,93.152,344.82        z"/>
					</g>
				</g>
				<g>
					<g>
						<path style="fill:#FEF1E4;" d="M117.983,360.453c-2.268,0-4.552-0.119-6.844-0.36c-4.503-0.475-8.156-1.336-11.167-2.634        c-3.698-1.592-6.119-3.889-7.267-6.431l0.641-0.383c1.046,2.322,3.536,4.423,7.01,5.92c2.921,1.258,6.481,2.095,10.887,2.561        c7.884,0.822,15.754,0.198,22.749-1.823c6.143-1.771,10.807-4.524,13.137-7.748l0.79,0.57        c-3.15,4.358-9.165,6.818-13.655,8.115C129.181,359.707,123.649,360.453,117.983,360.453z"/>
					</g>
				</g>
			</g>
		</g>
		<g>
			<g>
				<g>
					<polygon style="fill:#FEF1E4;" points="419.954,295.486 432.126,299.23 419.954,302.975 416.21,315.147 412.465,302.975        400.293,299.23 412.465,295.486 416.21,283.314      "/>
				</g>
			</g>
			<g>
				<g>
					<polygon style="fill:#FEF1E4;" points="160.315,140.299 172.487,144.044 160.315,147.788 156.57,159.96 152.826,147.788        140.654,144.044 152.826,140.299 156.57,128.127      "/>
				</g>
			</g>
			<g>
				<g>
					<polygon style="fill:#FEF1E4;" points="411.435,349.368 419.803,351.942 411.435,354.516 408.86,362.885 406.286,354.516        397.918,351.942 406.286,349.368 408.86,340.999      "/>
				</g>
			</g>
			<g>
				<g>
					<polygon style="fill:#FEF1E4;" points="345.779,126.734 354.147,129.309 345.779,131.883 343.205,140.251 340.63,131.883        332.262,129.309 340.63,126.734 343.205,118.366      "/>
				</g>
			</g>
			<g>
				<g>
					<polygon style="fill:#FEF1E4;" points="94.496,275.952 102.864,278.527 94.496,281.101 91.921,289.469 89.347,281.101        80.979,278.527 89.347,275.952 91.921,267.584      "/>
				</g>
			</g>
		</g>
	</g>
</g>















</svg>
