<?xml version="1.0" encoding="UTF-8"?>
<!-- Generator: Adobe Illustrator 25.2.1, SVG Export Plug-In . SVG Version: 6.00 Build 0)  -->
<svg xmlns="http://www.w3.org/2000/svg" xmlns:xlink="http://www.w3.org/1999/xlink" version="1.1" id="Capa_1" x="0px" y="0px" viewBox="0 0 510.689 510.689" style="enable-background:new 0 0 510.689 510.689;" xml:space="preserve" width="512" height="512">
<g>
	<g>
		<g>
			<path style="fill:#FFFFFF;" d="M510.456,384.888c0.155,2.682,0.233,5.303,0.233,7.918c0,22.857-5.531,45.961-17.22,65.706     c-10.052,16.98-24.996,31.668-43.748,38.568c-10.267,3.778-20.614,4.129-31.818,4.129c-20.705,0-40.768-9.152-56.436-25.445     l-24.191,12.417c-3.185,2.035-6.594,2.086-11.903,2.162c-2.857,0.042-6.88,0.078-11.872,0.111     c-3.453,0.023-7.525,1.689-10.948,2.334c-3.871,0.729-7.761,1.362-11.664,1.9c-7.471,1.029-14.988,1.72-22.523,2.049     c-22.139,0.968-44.442-1.113-66.001-6.251l-45.142-0.066c-10.085-0.015-19.846-0.04-29.029-0.069     c-8.536,9.165-34.09,9.646-39.255,9.646c-19.232,0-32.506-4.948-39.457-14.709c-3.092-4.343-3.793-9.553-4.403-14.74     c-1.179-10.03-1.898-20.061-3.834-29.965c-1.252-6.406-2.504-12.813-3.757-19.219c-3.532-18.072-7.065-36.143-10.597-54.215     c-3.067-15.688-6.133-31.376-9.2-47.065c-0.701-3.585-1.402-7.17-2.102-10.755c-0.168-0.861-0.252-1.734-0.252-2.611     c0-1.628,0.401-8.007,6.388-11.467c-0.999-6.104-1.752-12.574-2.279-19.635c-0.408-5.504-0.625-11.108-0.649-16.683     C7.89,255.858,0,244.294,0,230.103v-71.05c0-16.616,10.818-29.631,24.63-29.631h31.602c3.591-5.639,7.34-11.021,11.197-16.065     c3.896-5.145,7.969-10.095,12.071-14.665c14.771-16.57,31.835-31.036,50.684-42.961c17.952-11.365,37.217-20.238,57.302-26.395     c9.892-7.746,21.855-13.467,34.781-16.612c25.233-6.134,53.418-3.36,77.341,6.552c3.832,1.588,7.579,3.384,11.203,5.402     c13.121,2.957,26.094,7.081,38.584,12.275c23.27,9.677,44.965,22.969,64.092,39.384c18.223,15.639,34.056,34.028,46.836,54.357     c0.965,1.536,1.913,3.082,2.844,4.639c27.678,12.009,45.935,39.516,45.935,70.003c0,15.004-4.281,29.33-12.428,41.742     c0.17,3.679,0.255,7.301,0.255,10.809c0,20.96-2.711,41.738-8.062,61.816c9.916,14.096,16.829,31.472,19.936,50.126     C508.804,369.829,510.234,378.652,510.456,384.888z"/>
		</g>
	</g>
	<g>
		<g>
			<g>
				<g>
					<g>
						<g>
							<path style="fill:#B8B9FD;" d="M285.134,465.549l28.327,9.98l1.219,1.045c5.625-1.406,11.182-3.017,16.625-4.854         c31.36-10.537,60.019-28.108,83.853-51.03c22.735-21.865,41.033-48.381,53.133-77.525         c11.19-26.953,16.767-56.113,16.767-85.28c0-33.07-7.273-66.007-21.358-95.936c-13.657-29.02-33.561-55.004-57.971-75.804         c-26.624-22.685-58.314-38.822-92.31-47.06c-36.415-8.825-75.033-8.764-111.309,0.74         c-22.236,5.826-43.489,15.115-62.912,27.405c-30.205,19.11-55.709,45.52-73.913,76.269         c-20.374,34.415-31.031,74.06-31.063,114.029c-0.033,39.852,10.428,79.356,30.525,113.788         c9.664,16.557,21.433,31.886,34.962,45.47c24.709,24.81,55.219,43.942,88.454,55.027c5.388,1.797,10.843,3.39,16.355,4.761         c0.386,0.113,0.794,0.204,1.179,0.295l22.939-7.618L285.134,465.549z"/>
						</g>
					</g>
					<g>
						<g>
							<g>
								<g>
									<path style="fill:#FF470C;" d="M248.867,23.264c-2.511,0.046-5.007,0.163-7.477,0.35           c-4.766,0.361-9.523,1.203-14.167,2.333c-25.641,6.237-50.624,25.643-50.434,54.059c0.053,7.979,1.364,15.909,2.925,23.714           c2.839,14.193,7.978,27.865,10.496,42.118c0.577,3.271,1,6.73-0.167,9.84c-2.333,6.22-9.74,8.526-16.146,10.283           c-11.227,3.077-22.901,7.348-30.061,16.526c-5.465,7.005-7.612,16.131-7.745,25.015           c-0.183,12.181,3.221,24.394,9.677,34.724c3.809,6.095,8.972,11.752,15.777,14.064c7.98,2.712,16.68,0.417,24.876-1.55           c60.48-14.514,123.799-10.244,185.562-2.907c10.472-11.535,18.08-25.855,21.421-41.073           c3.118-14.197,1.729-27.719-7.893-39.2c-6.924-8.263-16.399-14.027-26.253-18.399c-8.912-3.954-11.636-8.411-11.349-18.233           c0.629-21.52-0.12-44.701-9.517-64.484C322.351,36.679,284.406,22.615,248.867,23.264z"/>
								</g>
							</g>
							<g>
								<g>
									<g>
										<polygon style="fill:#FFB4DC;" points="231.165,169.315 231.506,182.433 238.839,189.331 231.832,194.979 232.4,216.833             296.808,213.936 300.77,135.5           "/>
									</g>
								</g>
								<g>
									<g>
										<path style="fill:#040308;" d="M231.525,176.93l0.285,18.072c8.571,1.037,16.179,0.294,22.743-1.648            c20.28-5.998,36.952-19.79,39.826-41.787C276.333,164.96,254.464,173.744,231.525,176.93z"/>
									</g>
								</g>
							</g>
							<g>
								<g>
									<g>
										<path style="fill:#FFB4DC;" d="M214.929,176.86c30.092,16.552,74.445,6.063,83.793-31.704            c4.043-16.379,6.238-29.256,7.429-38.572c0.697-5.43,1.027-9.655,1.214-12.66c0.682-4.092,0.989-8.291,0.797-12.567            c-1.455-32.352-29.006-57.39-61.532-55.927c-13.371,0.601-25.48,5.579-35.031,13.488            c-8.209,6.798-14.515,15.778-18.036,25.845c-4.036,11.539-3.089,23.397-2.667,35.356            c0.315,8.949,0.684,17.852,1.808,26.754c1.976,15.637,5.241,35.535,17.615,46.674            C211.73,174.817,213.264,175.944,214.929,176.86z"/>
									</g>
								</g>
								<g>
									<g>
										<g>
											<path style="fill:#040308;" d="M247.741,115.952c0.129,2.875,2.254,5.115,4.746,5.003             c2.492-0.112,4.407-2.534,4.278-5.409c-0.129-2.875-2.254-5.115-4.746-5.003             C249.527,110.655,247.612,113.077,247.741,115.952z"/>
										</g>
									</g>
									<g>
										<g>
											<path style="fill:#040308;" d="M201.991,118.01c0.129,2.875,2.254,5.115,4.746,5.003             c2.492-0.112,4.407-2.534,4.278-5.409c-0.129-2.875-2.254-5.115-4.746-5.003             C203.777,112.713,201.861,115.134,201.991,118.01z"/>
										</g>
									</g>
									<g>
										<g>
											<g>
												<path style="fill:#040308;" d="M220.113,143.079c-0.122,0-0.241-0.04-0.34-0.117c-0.136-0.102-0.216-0.264-0.219-0.434              c-0.183-10.911-0.297-22.034-0.338-33.058c-0.001-0.31,0.248-0.56,0.557-0.563c0.001,0,0.001,0,0.002,0              c0.308,0,0.558,0.25,0.559,0.558c0.04,10.78,0.15,21.653,0.326,32.331c2.708-0.742,5.274-1.83,7.638-3.236              c0.264-0.157,0.609-0.071,0.766,0.195c0.158,0.266,0.071,0.609-0.195,0.766c-2.655,1.579-5.555,2.771-8.62,3.539              C220.204,143.072,220.158,143.079,220.113,143.079z"/>
											</g>
										</g>
									</g>
								</g>
								<g>
									<g>
										<g>
											<path style="fill:#040308;" d="M230.268,151.908c-2.088,0-4.056-1.15-5.303-3.196c-0.146-0.241-0.071-0.554,0.169-0.7             c0.24-0.146,0.554-0.071,0.699,0.168c1.343,2.204,3.651,3.178,5.884,2.485c2.201-0.687,3.528-2.784,3.381-5.347             c-0.016-0.281,0.198-0.521,0.48-0.536c0.301-0.033,0.521,0.199,0.537,0.478c0.174,3.043-1.433,5.546-4.094,6.375             C231.437,151.819,230.848,151.908,230.268,151.908z"/>
										</g>
									</g>
									<g>
										<g>
											<g>
												<path style="fill:#FF470C;" d="M197.902,100.384c-0.439,0.862-0.807,1.879-0.441,2.774              c0.248,0.606,0.795,1.041,1.369,1.355c1.834,1.003,4.074,1.018,6.105,0.523c1.442-0.352,2.863-0.973,3.884-2.05              c1.021-1.077,1.576-2.67,1.149-4.092c-0.503-1.672-2.27-2.747-4.013-2.833              C203.075,95.922,199.208,97.822,197.902,100.384z"/>
											</g>
										</g>
										<g>
											<g>
												<path style="fill:#FF470C;" d="M259.869,97.22c0.62,0.742,1.205,1.652,1.047,2.606              c-0.107,0.646-0.543,1.192-1.033,1.626c-1.564,1.386-3.745,1.9-5.835,1.869c-1.484-0.022-3.007-0.311-4.242-1.134              s-2.132-2.252-2.031-3.733c0.118-1.741,1.601-3.183,3.282-3.655C253.832,94.02,258.025,95.013,259.869,97.22z"/>
											</g>
										</g>
									</g>
								</g>
								<g>
									<g>
										<g>
											<g>
												<path style="fill:#FFB4DC;" d="M316.559,102.636c4.473,0.495,8.467,3.516,10.635,7.46              c2.167,3.944,2.615,8.695,1.762,13.114c-1.932,10.002-10.856,18.238-20.981,19.363              c-2.554,0.284-5.251,0.129-7.506-1.102c-3.023-1.65-4.804-5.041-5.245-8.456c-0.441-3.415,0.286-6.874,1.259-10.177              C299.248,113.449,304.415,101.293,316.559,102.636z"/>
											</g>
										</g>
									</g>
									<g>
										<g>
											<path style="fill:#040308;" d="M307.38,127.767c-0.109,0-0.219-0.029-0.319-0.089c-0.292-0.177-0.387-0.558-0.209-0.851             c1.331-2.197,2.707-4.47,4.466-6.457c2.017-2.273,4.23-3.796,6.577-4.532c0.332-0.091,0.673,0.082,0.775,0.408             c0.102,0.326-0.08,0.673-0.405,0.775c-2.131,0.664-4.156,2.069-6.021,4.168c-1.686,1.903-3.032,4.126-4.334,6.279             C307.794,127.661,307.589,127.767,307.38,127.767z"/>
										</g>
									</g>
								</g>
							</g>
							<g>
								<g>
									<path style="fill:#FCF2E9;" d="M232.008,197.827c0,0-0.023,0-0.045,0.023c-0.023-0.023-0.023-0.023-0.023-0.023H232.008z"/>
								</g>
							</g>
							<g>
								<g>
									<path style="fill:#FCF2E9;" d="M278.345,482.562c1.361-0.091,2.722-0.227,4.083-0.363           c10.637-1.066,21.048-2.858,31.186-5.353c0.363-0.091,0.703-0.181,1.066-0.272c5.625-1.406,11.182-3.017,16.625-4.854           c8.505-2.858,16.784-6.192,24.79-10.002c2.382-1.111,4.695-2.268,7.008-3.47c2.518-1.293,5.012-2.654,7.485-4.06           c4.355-2.472,8.641-5.103,12.815-7.848c7.711-5.058,15.083-10.569,22.091-16.557c5.489-4.672,10.773-9.617,15.786-14.788           c0.499-0.499,0.975-0.998,1.452-1.52c0.363-6.963,0.34-14.493-0.227-22.59c-4.105-59.061-30.097-114.357-49.989-139.691           c-3.039-3.856-5.92-7.031-8.573-9.413c-26.786-24.087-55.319-44.477-55.319-44.477l-10.524-8.619l-0.023-0.023           c0,0-14.402,24.699-36.493,25.697c-21.751,0.953-29.417-16.013-29.621-16.512c-0.023,0.023-0.023,0.023-0.045,0.023           c-2.064,1.225-42.776,25.493-70.855,58.244c-8.052,9.367-15.037,19.415-19.8,29.825           c-15.037,32.797-13.087,111.159-10.411,157.042c4.559,3.198,9.254,6.192,14.062,9.027c1.247,0.748,2.472,1.474,3.72,2.177           c0.885,0.522,1.792,1.021,2.699,1.52c1.814,0.998,3.652,1.973,5.489,2.903c7.258,3.742,14.765,7.099,22.454,10.025           c0.204,0.091,0.431,0.159,0.658,0.249c7.984,3.017,16.194,5.602,24.586,7.689c0.386,0.113,0.794,0.204,1.179,0.295           c6.895,1.701,13.926,3.062,21.048,4.105C226.746,480.974,253.205,485.301,278.345,482.562z"/>
								</g>
							</g>
						</g>
						<g>
							<g>
								<path style="fill:#FF470C;" d="M309.143,64.634c-1.976-6.859-4.99-13.504-9.548-18.998          c-3.261-3.931-7.257-7.206-11.524-10.011c-16.562-10.886-37.231-14.289-56.524-9.752c0.001,0.061,0.007,0.123,0.008,0.184          c-14.044,5.663-28.039,12.115-36.523,24.65c-3.056,4.516-5.231,9.568-7.117,14.685c-4.166,11.298-5.103,23.652-2.928,35.496          C204,78.633,219.741,53.591,231.587,26.823c0.576,17.832,7.159,35.422,18.471,49.222          c11.513,14.044,27.833,24.072,45.564,27.996c0.87,3.94,2.462,7.289,3.332,11.229c2.983-3.259,5.366-5.915,7.346-9.876          c2.598-5.197,4.412-11.894,5.078-17.651C312.272,80.004,311.3,72.119,309.143,64.634z"/>
							</g>
						</g>
					</g>
				</g>
				<g>
					<g>
						<g>
							<g>
								<g>
									<path style="fill:#0060FF;" d="M236.343,476.9c-9.98,0-20.277,0-30.642-0.023c-15.718-0.023-31.572-0.045-46.723-0.068           c-15.173-0.023-29.621-0.068-42.459-0.113c-30.982-0.045-52.642-0.113-52.642-0.113l31.662-22.386h279.882l-43.615,22.386           c-0.113,0.113-6.872,0.204-18.19,0.272"/>
								</g>
							</g>
							<g style="opacity:0.33;">
								<g>
									<path style="fill:#040308;" d="M236.343,476.9c-9.98,0-20.277,0-30.642-0.023c-15.718-0.023-31.572-0.045-46.723-0.068           c-15.173-0.023-29.621-0.068-42.459-0.113c-30.982-0.045-52.642-0.113-52.642-0.113l31.662-22.386h279.882l-43.615,22.386           c-0.113,0.113-6.872,0.204-18.19,0.272"/>
								</g>
							</g>
							<g>
								<g>
									<path style="fill:#040308;" d="M63.878,477.829L30.683,306.717c0-0.772,283.366-0.772,283.366-0.772l17.888,171.885H63.878           z"/>
								</g>
							</g>
							<g>
								<g>
									<circle style="fill:#FCF2E9;" cx="176.709" cy="390.588" r="20.558"/>
								</g>
							</g>
						</g>
						<g>
							<g>
								<path style="fill:#FFB4DC;" d="M122.264,469.31c0,0.091,0,0.181-0.018,0.254c-0.127,1.485-0.272,2.88-0.435,4.166          c-0.181,1.34-0.38,2.554-0.598,3.604c-0.362,1.829-0.797,3.169-1.268,3.767c-3.151,4.057-47.179,11.156-57.683-3.767          c-0.308-0.416-0.579-0.869-0.815-1.322c0,0-0.417-2.572-0.978-6.52c0-0.054-0.018-0.127-0.018-0.181          c-0.544-3.858-1.196-8.983-1.702-14.344c-0.109-1.177-0.217-2.354-0.308-3.531c-0.924-11.537-0.924-23.091,2.554-24.432          c4.274-1.666,9.309,12.66,12.659,24.432c1.322,4.6,2.373,8.838,3.024,11.536c0.471,1.938,0.725,3.097,0.725,3.097          s-0.09-1.087-0.199-2.898c-0.163-2.68-0.399-6.973-0.507-11.736c-0.29-11.79,0.181-26.514,4.166-27.202          c4.256-0.743,7.77,15.322,9.762,27.202c1.159,6.864,1.811,12.333,1.811,12.333s0.09-5.433,0.489-12.333          c0.688-11.971,2.318-28.362,5.976-28.362c3.532,0,6.719,15.938,8.657,28.362c1.232,7.914,1.974,14.398,1.974,14.398          s1.467-7.226,3.477-14.398c2.065-7.335,4.709-14.616,6.936-14.036c1.702,0.453,2.572,6.538,2.807,14.036          C122.934,457.194,122.735,463.768,122.264,469.31z"/>
							</g>
						</g>
					</g>
				</g>
				<g>
					<g>
						<g>
							<g>
								<ellipse style="fill:#0060FF;" cx="419.64" cy="392.808" rx="73.935" ry="94.793"/>
							</g>
						</g>
						<g>
							<g>
								<ellipse style="fill:#FF470C;" cx="428.476" cy="392.808" rx="70.341" ry="94.793"/>
							</g>
						</g>
						<g>
							<g>
								<ellipse style="fill:#FCF2E9;" cx="428.476" cy="392.808" rx="56.781" ry="76.519"/>
							</g>
						</g>
						<g>
							<g>
								<ellipse style="fill:#FF470C;" cx="428.476" cy="392.808" rx="39.832" ry="53.678"/>
							</g>
						</g>
						<g>
							<g>
								<path style="fill:#FCF2E9;" d="M448.985,392.808c0,15.264-9.182,27.638-20.509,27.638          c-11.327,0-20.509-12.374-20.509-27.638c0-15.264,9.182-27.638,20.509-27.638          C439.803,365.169,448.985,377.543,448.985,392.808z"/>
							</g>
						</g>
						<g>
							<g>
								<polygon style="fill:#B8B9FD;" points="472.457,390.859 478.283,380.078 500.128,378.591 489.351,391.231 496.632,404.985           477.992,403.498         "/>
							</g>
						</g>
						<g>
							<g>
								<path style="fill:#040308;" d="M493.574,392.382h-62.476c-0.534,0-0.967-0.432-0.967-0.966c0-0.534,0.433-0.966,0.967-0.966          h62.476c0.534,0,0.967,0.432,0.967,0.966C494.541,391.95,494.108,392.382,493.574,392.382z"/>
							</g>
						</g>
					</g>
				</g>
				<g>
					<g>
						<g>
							<g>
								<path style="fill:#0060FF;" d="M26.367,143.029h134.977c6.087,0,11.021,7.174,11.021,16.024v71.051          c0,8.85-4.934,16.024-11.021,16.024h-27.86l9.054,30.275l-30.078-30.275H26.367c-6.087,0-11.021-7.174-11.021-16.024          v-71.051C15.345,150.203,20.28,143.029,26.367,143.029z"/>
							</g>
						</g>
					</g>
					<g>
						<g>
							<g>
								<path style="fill:#FCF2E9;" d="M94.17,230.407c-20.556,0-37.279-16.723-37.279-37.277c0-20.557,16.724-37.279,37.279-37.279          s37.278,16.723,37.278,37.279C131.448,213.684,114.726,230.407,94.17,230.407z M94.17,157.405          c-19.698,0-35.725,16.025-35.725,35.725c0,19.697,16.026,35.722,35.725,35.722s35.723-16.025,35.723-35.722          C129.893,173.43,113.868,157.405,94.17,157.405z"/>
							</g>
						</g>
						<g>
							<g>
								<rect x="93.393" y="156.628" style="fill:#FCF2E9;" width="1.555" height="73.002"/>
							</g>
						</g>
						<g>
							<g>
								<rect x="57.668" y="192.352" style="fill:#FCF2E9;" width="73.003" height="1.555"/>
							</g>
						</g>
						<g>
							<g>
								<path style="fill:#FCF2E9;" d="M86.592,229.233c-5.472-5.87-9.049-14.043-10.634-24.291          c-1.093-7.066-1.163-14.242-0.209-21.33c0.843-6.255,2.372-11.44,4.675-15.85c2.794-5.356,6.737-9.506,11.402-12          l0.733,1.369c-4.389,2.348-8.109,6.273-10.758,11.349c-2.218,4.248-3.693,9.267-4.513,15.341          c-0.934,6.939-0.864,13.965,0.205,20.882c1.537,9.936,4.98,17.832,10.235,23.472L86.592,229.233z"/>
							</g>
						</g>
						<g>
							<g>
								<path style="fill:#FCF2E9;" d="M102.813,229.647l-1.185-1.006c6.631-7.816,8.14-18.683,8.741-28.285          c0.624-9.974,0.649-22.816-4.726-33.696c-1.855-3.754-4.104-6.702-6.688-8.764l0.97-1.214          c2.762,2.204,5.155,5.329,7.111,9.292c5.537,11.208,5.518,24.313,4.883,34.48          C111.302,210.309,109.739,221.485,102.813,229.647z"/>
							</g>
						</g>
						<g>
							<g>
								<path style="fill:#FCF2E9;" d="M58.262,191.449l-1.387-0.7c0.865-1.71,2.353-2.997,3.833-4.129          c14.176-10.877,33.7-14.747,50.951-10.1c8.259,2.224,14.614,5.956,18.889,11.092l-1.194,0.992          c-4.065-4.884-10.155-8.446-18.098-10.583c-16.801-4.53-35.803-0.757-49.602,9.83          C60.411,188.804,59.021,189.945,58.262,191.449z"/>
							</g>
						</g>
						<g>
							<g>
								<path style="fill:#FCF2E9;" d="M91.278,212.231c-3.015,0-6.056-0.159-9.1-0.478c-5.978-0.629-10.835-1.776-14.849-3.504          c-4.916-2.115-8.463-5.143-9.989-8.525l1.181-0.532c1.392,3.088,4.702,5.881,9.32,7.87          c3.892,1.674,8.626,2.789,14.472,3.402c10.489,1.107,20.944,0.268,30.246-2.419c8.165-2.357,14.367-6.016,17.464-10.302          l1.05,0.758c-4.185,5.792-12.183,9.063-18.155,10.789C106.162,211.239,98.808,212.231,91.278,212.231z"/>
							</g>
						</g>
					</g>
				</g>
				<g>
					<g>
						<g>
							<circle style="fill:#FFD484;" cx="434.54" cy="205.334" r="62.692"/>
						</g>
					</g>
					<g>
						<g>
							<g>
								<polygon style="fill:#B8B9FD;" points="444.12,238.3 477.922,238.785 478.893,190.279 444.454,188.096         "/>
							</g>
						</g>
						<g>
							<g>
								<path style="fill:#FCF2E9;" d="M424.324,188.339c0,0-3.638-24.495,1.94-24.98c5.578-0.485,17.947,24.253,17.947,24.253          l12.126,1.455l-2.183,49.476c0,0-56.266,1.94-57.964-3.88c-1.698-5.82-0.485-10.914-0.485-10.914s-4.123-7.034-3.153-11.156          c0.97-4.123,2.91-7.761,2.91-7.761s-2.668-7.518-1.94-12.127c0.728-4.608,8.731-5.093,13.097-4.851          C410.985,188.096,424.324,188.339,424.324,188.339z"/>
							</g>
						</g>
					</g>
				</g>
			</g>
			<g>
				<g>
					<g>
						<g>
							<polygon style="fill:#FCF2E9;" points="117.931,112.917 126.414,115.526 117.931,118.136 115.322,126.618 112.713,118.136          104.23,115.526 112.713,112.917 115.322,104.434        "/>
						</g>
					</g>
				</g>
				<g>
					<g>
						<g>
							<polygon style="fill:#FCF2E9;" points="161.942,112.917 170.424,115.526 161.942,118.136 159.332,126.618 156.723,118.136          148.241,115.526 156.723,112.917 159.332,104.434        "/>
						</g>
					</g>
				</g>
				<g>
					<g>
						<g>
							<polygon style="fill:#FCF2E9;" points="161.942,72.952 170.424,75.562 161.942,78.171 159.332,86.653 156.723,78.171          148.241,75.562 156.723,72.952 159.332,64.47        "/>
						</g>
					</g>
				</g>
				<g>
					<g>
						<g>
							<polygon style="fill:#FCF2E9;" points="405.158,118.707 413.64,121.317 405.158,123.926 402.548,132.408 399.939,123.926          391.456,121.317 399.939,118.707 402.548,110.225        "/>
						</g>
					</g>
				</g>
				<g>
					<g>
						<g>
							<polygon style="fill:#FCF2E9;" points="408.142,273.793 416.624,276.402 408.142,279.012 405.533,287.494 402.923,279.012          394.441,276.402 402.923,273.793 405.533,265.311        "/>
						</g>
					</g>
				</g>
				<g>
					<g>
						<g>
							<polygon style="fill:#FCF2E9;" points="463.066,280.265 471.548,282.874 463.066,285.484 460.457,293.966 457.847,285.484          449.365,282.874 457.847,280.265 460.457,271.783        "/>
						</g>
					</g>
				</g>
				<g>
					<g>
						<g>
							<polygon style="fill:#FCF2E9;" points="119.281,286.114 127.763,288.723 119.281,291.333 116.671,299.815 114.062,291.333          105.579,288.723 114.062,286.114 116.671,277.632        "/>
						</g>
					</g>
				</g>
				<g>
					<g>
						<g>
							<polygon style="fill:#FCF2E9;" points="75.665,265.795 84.147,268.404 75.665,271.014 73.056,279.496 70.446,271.014          61.964,268.404 70.446,265.795 73.056,257.313        "/>
						</g>
					</g>
				</g>
			</g>
		</g>
	</g>
</g>















</svg>
